<?xml version="1.0" encoding="UTF-8"?><svg id="a" xmlns="http://www.w3.org/2000/svg" viewBox="0 0 209 186"><defs><style>.b{fill:#ef3a58;}.c{fill:#fec02d;}.d{fill:#a1c0e5;}.e{fill:#5fc6cb;}</style></defs><polygon class="c" points="184.97 169 142.73 169 126.91 123.36 141.04 105.07 150.35 93 141.04 80.94 91.66 17 132.26 17 184.97 169"/><polygon class="d" points="63.93 73.98 63.93 92.99 24.03 92.99 24.03 22.31 63.93 73.98"/><g><polygon class="b" points="103.85 83.74 105.99 87.75 104.42 83.54 103.85 83.74"/><path class="b" d="M104.75,81.01c-.67,1.26-1.96,1.49-3.35,.95,.95,1.49,3.71,.8,3.35-.95Z"/><path class="b" d="M110.14,87.19c.66-1.26,1.95-1.49,3.35-.96-.95-1.49-3.71-.79-3.35,.96Z"/><path class="b" d="M104.16,78.18c-.88,1.41-2.38,1.7-4.06,1.43,1.38,1.23,4.16,.46,4.06-1.43Z"/><path class="b" d="M110.73,90.01c.88-1.41,2.38-1.7,4.06-1.42-1.38-1.24-4.16-.46-4.06,1.42Z"/><polygon class="b" points="62.21 21.44 60.07 17.43 61.64 21.64 62.21 21.44"/><path class="b" d="M130.29,80.93l-6.71-8.69L80.92,17H30.5l58.68,76h50.42l-9.31-12.07Zm-46.68-31.32c-.83-1.3-2.43-2.58-4.44-2.31-1.1,.15-2.08,.83-2.69,1.87-1.49,2.55-.7,6.24,2.11,9.87l24.21,31.27c-.58,.18-1.81-.36-2.54-1.31l-22.67-29.29c-3.68-4.75-4.21-9.58-1.34-12.3,2.51-2.25,5.03-1.22,6.31-.42,1.92,1.21,2.74,3.48,2.4,4.91-.13,.54-.42,.9-.83,1.01,.46-.79,.28-2.09-.51-3.31Zm17.81,20.48c-2.04,1.81-5.42,2.85-8.64,1.39,2.64,.5,5.63-.37,7.82-2.32,1.01-.89,1.74-1.91,2.19-3.02,0,0,.01,0,.01-.02h0s.03-.07,.04-.1c0,0,0,0,0,0,.45-1.14,.6-2.35,.42-3.55,1.39,3.17,.01,5.98-1.84,7.63Zm2.14-7.32c1.8,2.85,1.61,5.34-.57,7.62-.94,.97-2.1,1.73-3.38,2.19-2.56,.95-4.94,.6-6.93-.99,3.3,1.52,6.76,.45,8.85-1.4,1.83-1.62,3.19-4.34,2.03-7.43Zm-4.07-1.14c.14-.57,.19-1.15,.17-1.76l3.36,4.34c-.06,.51-.18,1.02-.36,1.51l-3.16-4.09Zm3.35,.14c.19,.73,.26,1.48,.2,2.22l-3.4-4.4c-.09-1.03-.42-2.1-1-3.25l4.2,5.43Zm-3.68-.16c-.2,.76-.56,1.49-1.08,2.17-.82,1.08-1.92,1.9-3.19,2.38-2.57,.98-5.18,.46-7.6-1.48,3.07,1.51,6.39,1.23,8.66-.83,2.03-1.84,3.15-5.19,1.51-8.91,1.64,2.51,2.2,4.72,1.69,6.68Zm-3.31,2.13c-1.81,1.63-4.95,2.61-8.54,.78,2.76,.68,5.64-.06,7.71-2.03,2.17-2.06,2.93-4.95,2.13-7.9,1.87,3.81,.77,7.27-1.29,9.14Zm1.14-5.35l-3.4-4.39c.02-.71-.04-1.47-.2-2.23l3.75,4.84c.03,.61-.03,1.2-.15,1.78Zm-.5-4.83c.37,.93,.59,1.87,.64,2.79l-3.8-4.91s-.02-.09-.03-.13c-.29-1.23-.78-2.5-1.47-3.77l4.66,6.02Zm-28.31-36.57l21.44,27.69c1.7,2.2,2.87,4.51,3.38,6.68,.22,.92,.31,1.81,.28,2.65v.02c-.09,2.35-1.14,4.25-3.05,5.53-4.51,3.02-7.8-.27-9.01-1.82-1.77-2.3-1.3-4.5-.4-5.33,.34-.32,.72-.42,1.05-.31-.44,.15-.76,.54-.89,1.12-.26,1.05,.11,2.55,1.06,3.77,.37,.49,.85,.93,1.41,1.29,1.31,.83,3.91,1.88,6.5-.44,2.92-2.77,2.4-7.67-1.33-12.48l-21.96-28.37h1.52Zm-1.7,0l22.02,28.45c3.68,4.75,4.2,9.58,1.34,12.3-2.51,2.25-5.03,1.22-6.31,.42-1.92-1.21-2.74-3.49-2.4-4.9,.13-.55,.41-.9,.82-1.02-.46,.79-.27,2.09,.51,3.31,.83,1.3,2.43,2.58,4.44,2.31,1.1-.15,2.08-.83,2.69-1.87,1.49-2.55,.7-6.24-2.11-9.87l-22.54-29.12h1.53Zm-5.53,0l8.38,10.82c-3.69-1.81-6.92-.62-8.23,2.14-1.05-4.46-1.84-8.79-2.33-12.96h2.18Zm-14.89,0l6.74,8.7,8.6,11.12c-.21,.48-.33,.99-.37,1.5l-8.11-10.47-8.4-10.85h1.53Zm7.01,13.24l-10.24-13.24h1.52l8.6,11.11,8.08,10.44c-.04,.88,.17,1.78,.6,2.73l-8.55-11.05Zm10.03,4.54c.94-.97,2.1-1.73,3.38-2.19,2.56-.95,4.94-.6,6.93,.99-3.3-1.52-6.76-.45-8.85,1.4-1.83,1.62-3.19,4.34-2.03,7.43-1.8-2.85-1.61-5.34,.57-7.62Zm1.57,.3c2.04-1.81,5.42-2.85,8.64-1.39-2.64-.5-5.63,.37-7.82,2.32-1.01,.89-1.74,1.91-2.19,3.02,0,0-.01,0-.01,.02h0s-.03,.07-.04,.1c0,0,0,0,0,0-.45,1.14-.6,2.35-.42,3.55-1.39-3.17-.01-5.98,1.84-7.63Zm1.93,8.46c-.14,.57-.19,1.15-.17,1.76l-3.36-4.34c.06-.51,.18-1.02,.36-1.51l3.16,4.09Zm-3.35-.14c-.19-.73-.26-1.48-.2-2.22l3.4,4.4c.09,1.03,.42,2.1,1,3.25l-4.2-5.43Zm3.68,.16c.2-.76,.56-1.49,1.08-2.17,.82-1.08,1.92-1.9,3.19-2.38,2.57-.98,5.18-.46,7.6,1.49-3.08-1.52-6.39-1.23-8.66,.83-2.03,1.84-3.15,5.19-1.51,8.92-1.64-2.51-2.2-4.72-1.69-6.68Zm3.31-2.13c1.81-1.63,4.95-2.61,8.54-.78-2.76-.68-5.64,.06-7.71,2.03-2.17,2.06-2.93,4.95-2.13,7.9-1.87-3.81-.77-7.27,1.29-9.14Zm-1.14,5.35l3.4,4.39c-.02,.71,.04,1.47,.2,2.23l-3.75-4.84c-.03-.61,.03-1.2,.15-1.78Zm.5,4.83c-.37-.93-.59-1.87-.64-2.79l3.8,4.91s.02,.09,.03,.13c.29,1.23,.78,2.5,1.47,3.77l-4.66-6.02Zm29.78,38.48l-22.91-29.6c-1.7-2.2-2.88-4.51-3.38-6.68-.22-.92-.32-1.81-.28-2.65v-.02c.08-2.34,1.14-4.25,3.05-5.53,4.52-3.02,7.8,.27,9,1.82,1.78,2.3,1.31,4.5,.4,5.33-.34,.32-.71,.42-1.05,.31,.44-.15,.76-.54,.9-1.11,.25-1.05-.11-2.56-1.06-3.78-.38-.49-.85-.93-1.41-1.29-1.32-.83-3.92-1.88-6.5,.44-2.92,2.77-2.4,7.67,1.33,12.49l22.67,29.29c.75,.97,2.09,1.61,2.76,1.35l1.44,1.86c-.38,.22-.82,.3-1.3,.26-1.18-.09-2.49-.97-3.66-2.49Zm2.25,2.91l-.82-1.05c.74,.55,1.5,.88,2.22,.93h.02l.1,.13h-1.52Zm1.71,0l-.09-.11c.46,0,.9-.1,1.28-.32l.34,.44h-1.53Zm-6.57-15.64c3.68,1.81,6.92,.63,8.23-2.14,1.32,5.62,2.24,11.04,2.66,16.19l-10.88-14.05Zm13.16,15.64c-1.32-5.62-2.24-11.04-2.66-16.2l10.88,14.06c-3.68-1.81-6.92-.63-8.23,2.14Zm13.84,0l-19.07-24.63c.21-.49,.33-.98,.36-1.5l20.23,26.14h-1.53Zm1.72,0l-20.41-26.37c.04-.88-.16-1.79-.6-2.73l22.53,29.1h-1.52Z"/><path class="b" d="M61.91,26.99c.87-1.41,2.37-1.71,4.06-1.43-1.38-1.23-4.17-.45-4.06,1.43Z"/><polygon class="b" points="110.47 84.66 111.04 84.46 108.9 80.44 110.47 84.66"/><path class="b" d="M61.31,24.17c.67-1.26,1.96-1.49,3.35-.95-.94-1.49-3.7-.8-3.35,.95Z"/></g><g><path class="e" d="M104.75,104.97c.36-1.75-2.4-2.44-3.35-.95,1.39-.54,2.68-.3,3.35,.95Z"/><path class="e" d="M65.96,160.41c-1.69,.28-3.19-.02-4.06-1.43-.11,1.88,2.68,2.66,4.06,1.43Z"/><polygon class="e" points="105.99 98.23 103.85 102.24 104.42 102.44 105.99 98.23"/><polygon class="e" points="60.07 168.55 62.21 164.53 61.64 164.33 60.07 168.55"/><path class="e" d="M126.98,93l-22.52,29.08c.44-.94,.64-1.85,.6-2.73l20.4-26.35h-.19l-20.22,26.12c-.03-.52-.15-1.02-.36-1.5l19.06-24.62h-13.82c1.31,2.76,4.54,3.93,8.22,2.13l-10.88,14.06c.41-5.15,1.33-10.56,2.65-16.18h-5.07l-.33,.42c-.38-.22-.82-.33-1.28-.32l.08-.1h-.19l-.09,.11h-.02c-.72,.05-1.48,.38-2.22,.93l.81-1.04h-12.42L30.5,169h50.42l42.66-55.24,6.71-8.69,9.31-12.07h-12.63Zm-19.34,1.58c-.42,5.15-1.33,10.57-2.66,16.19-1.31-2.77-4.55-3.95-8.23-2.14l10.88-14.05Zm-31.16,42.22c.61,1.04,1.59,1.72,2.69,1.87,2.01,.27,3.61-1.01,4.44-2.31,.79-1.22,.98-2.51,.51-3.31,.41,.12,.69,.47,.83,1.01,.34,1.42-.48,3.7-2.4,4.91-1.28,.81-3.8,1.83-6.31-.42-2.87-2.72-2.34-7.55,1.34-12.3l22.67-29.29c.74-.95,1.97-1.49,2.54-1.31l-24.21,31.27c-2.81,3.63-3.6,7.32-2.11,9.87Zm22.88-40.89c1.18-1.52,2.48-2.4,3.66-2.49,.48-.04,.92,.05,1.3,.26l-1.44,1.86c-.67-.25-2.02,.39-2.76,1.35l-22.67,29.29c-3.73,4.82-4.25,9.72-1.33,12.49,2.58,2.32,5.19,1.27,6.5,.44,.56-.36,1.03-.8,1.41-1.29,.95-1.22,1.31-2.73,1.06-3.78-.14-.58-.46-.97-.9-1.11,.34-.12,.71,0,1.05,.31,.9,.83,1.37,3.03-.4,5.33-1.2,1.55-4.49,4.84-9,1.82-1.91-1.28-2.97-3.19-3.05-5.53v-.02c-.04-.84,.06-1.73,.28-2.65,.51-2.17,1.68-4.48,3.38-6.68l22.91-29.6Zm-29.78,38.48l4.66-6.02c-.69,1.27-1.18,2.54-1.47,3.77-.01,.04-.02,.09-.03,.13l-3.8,4.91c.05-.92,.27-1.86,.64-2.79Zm3.1-1.79c-.16,.76-.22,1.52-.2,2.23l-3.4,4.39c-.12-.58-.18-1.17-.15-1.78l3.75-4.84Zm-1.63,10.73c2.07,1.96,4.95,2.7,7.71,2.03-3.6,1.83-6.74,.85-8.54-.78-2.07-1.87-3.16-5.34-1.29-9.14-.8,2.96-.04,5.84,2.13,7.9Zm-.94,1.35c2.27,2.06,5.59,2.35,8.66,.83-2.42,1.95-5.03,2.47-7.6,1.49-1.27-.48-2.37-1.31-3.19-2.38-.52-.69-.88-1.41-1.08-2.17-.51-1.95,.05-4.17,1.69-6.68-1.64,3.72-.52,7.08,1.51,8.91Zm-6.88-2.08l4.2-5.43c-.57,1.15-.91,2.23-1,3.25l-3.4,4.4c-.07-.74,0-1.48,.2-2.22Zm3.35-.14l-3.16,4.09c-.18-.49-.3-1-.36-1.51l3.36-4.34c-.03,.61,.02,1.19,.17,1.76Zm-3.36,4.37s0,0,0,0c0,.04,.02,.07,.04,.1h0s0,.02,.01,.02c.45,1.11,1.18,2.13,2.19,3.02,2.19,1.95,5.18,2.82,7.82,2.32-3.22,1.46-6.6,.42-8.64-1.39-1.86-1.65-3.23-4.46-1.84-7.63-.19,1.2-.04,2.41,.42,3.55Zm1.32,4.2c2.09,1.85,5.55,2.91,8.85,1.4-1.99,1.59-4.37,1.93-6.93,.99-1.27-.46-2.44-1.23-3.38-2.19-2.18-2.27-2.37-4.77-.57-7.62-1.16,3.09,.2,5.81,2.03,7.43Zm-21.73,17.96l10.24-13.24,8.55-11.05c-.43,.95-.63,1.85-.6,2.73l-8.08,10.44-8.6,11.11h-1.52Zm3.23,0h-1.53l8.4-10.85,8.11-10.47c.04,.51,.16,1.02,.37,1.5l-8.6,11.12-6.74,8.7Zm12.71,0c.49-4.17,1.29-8.51,2.33-12.96,1.3,2.76,4.54,3.95,8.23,2.14l-8.38,10.82h-2.18Zm6.18,0l22.54-29.12c2.81-3.63,3.59-7.32,2.11-9.87-.61-1.04-1.59-1.72-2.69-1.87-2.01-.27-3.61,1.01-4.44,2.31-.78,1.22-.98,2.51-.51,3.31-.41-.12-.69-.47-.82-1.02-.34-1.42,.48-3.69,2.4-4.9,1.27-.81,3.8-1.83,6.31,.42,2.87,2.72,2.34,7.55-1.34,12.3l-22.02,28.45h-1.53Zm3.24,0h-1.52l21.96-28.37c3.72-4.81,4.24-9.71,1.33-12.48-2.59-2.32-5.19-1.27-6.5-.44-.57,.36-1.04,.81-1.41,1.29-.95,1.22-1.32,2.73-1.06,3.77,.14,.58,.45,.97,.89,1.12-.33,.12-.7,.01-1.05-.31-.9-.82-1.37-3.03,.4-5.33,1.21-1.55,4.5-4.84,9.01-1.82,1.91,1.28,2.96,3.18,3.05,5.53v.02c.03,.84-.06,1.73-.28,2.65-.51,2.17-1.68,4.48-3.38,6.68l-21.44,27.69Zm28.31-36.57l-4.66,6.02c.69-1.27,1.18-2.54,1.47-3.77,.01-.04,.02-.09,.03-.13l3.8-4.91c-.05,.92-.27,1.86-.64,2.79Zm-3.1,1.79c.16-.76,.22-1.52,.2-2.23l3.4-4.39c.12,.58,.18,1.17,.15,1.78l-3.75,4.84Zm1.63-10.73c-2.07-1.96-4.95-2.7-7.71-2.03,3.6-1.83,6.74-.85,8.54,.78,2.07,1.87,3.16,5.34,1.29,9.14,.8-2.96,.04-5.84-2.13-7.9Zm.94-1.35c-2.27-2.06-5.59-2.35-8.66-.83,2.41-1.95,5.03-2.46,7.6-1.48,1.27,.48,2.37,1.31,3.19,2.38,.52,.69,.88,1.41,1.08,2.17,.51,1.95-.05,4.17-1.69,6.68,1.64-3.72,.52-7.08-1.51-8.91Zm6.88,2.08l-4.2,5.43c.58-1.15,.91-2.23,1-3.25l3.4-4.4c.07,.74,0,1.48-.2,2.22Zm-3.35,.14l3.16-4.09c.18,.49,.3,1,.36,1.51l-3.36,4.34c.03-.61-.02-1.19-.17-1.76Zm3.36-4.37s0,0,0,0c0-.04-.02-.07-.04-.1h0s0-.01-.01-.02c-.45-1.11-1.18-2.13-2.19-3.02-2.19-1.95-5.18-2.82-7.82-2.32,3.22-1.46,6.6-.42,8.64,1.39,1.86,1.65,3.23,4.46,1.84,7.63,.19-1.2,.04-2.41-.42-3.55Zm-1.32-4.2c-2.09-1.85-5.55-2.91-8.85-1.4,1.99-1.59,4.37-1.93,6.93-.99,1.27,.46,2.44,1.23,3.38,2.19,2.18,2.27,2.37,4.77,.57,7.62,1.16-3.09-.2-5.81-2.03-7.43Z"/><polygon class="e" points="111.04 101.52 110.47 101.32 108.9 105.53 111.04 101.52"/><path class="e" d="M114.79,97.39c-1.68,.28-3.18-.01-4.06-1.42-.1,1.88,2.68,2.66,4.06,1.42Z"/><path class="e" d="M61.31,161.8c-.35,1.75,2.4,2.45,3.35,.95-1.39,.54-2.67,.3-3.35-.95Z"/><path class="e" d="M100.09,106.36c1.68-.27,3.19,.02,4.06,1.43,.1-1.89-2.68-2.66-4.06-1.43Z"/><path class="e" d="M113.49,99.74c-1.4,.54-2.68,.3-3.35-.96-.36,1.75,2.4,2.44,3.35,.96Z"/></g></svg>