<svg xmlns="http://www.w3.org/2000/svg" id="a" viewBox="60.63 28.69 780.75 51.92"><defs><style>.b{fill:#fff;}</style></defs><g><path class="b" d="M70.14,28.69c-2.47,.64-4.42,1.67-5.68,3.07l-.04,.05h-3.79v-3.11h9.51Z"/><path class="b" d="M64.07,32.18c-.74,.94-1.17,2.01-1.24,3.13h-2.19v-3.13h3.44Z"/><path class="b" d="M218.83,50.99c0,14.02-12.93,15.54-18.49,15.54-8.23,0-12.69-4.45-13.21-7.61-.21-1.2,.12-2.13,.93-2.64-.35,1.14,.07,2.41,1.21,3.61,2.09,2.18,6.21,3.82,10.6,3.82,1.74,0,3.53-.26,5.26-.84,4.04-1.38,10.62-5.05,9.21-14.01-1.93-10.36-14.32-17.06-31.57-17.06H77.89c-3.46,0-7.09,1.73-7.55,3.51h-6.65c.09-1.12,.58-2.16,1.44-3.08,2.07-2.29,6.21-3.54,11.65-3.54h105.96c7.88,0,15.18,1.26,21.09,3.65,2.51,1.01,4.77,2.23,6.7,3.62l.04,.03c5.4,3.88,8.25,9.07,8.25,15h0Z"/><path class="b" d="M204.97,62.5c-5.88,2.03-12.55,.09-15.37-2.85-1.07-1.14-1.46-2.27-1.09-3.3,1.14,2.21,4.49,3.87,8.62,4.19,4.37,.37,9.91-.89,12.44-5.43,1.39-2.49,1.32-5.57-.17-8.47-3.68-7.09-13.63-11.32-26.64-11.32H70.79c.49-1.46,3.7-3.13,7.11-3.13h104.88c17.02,0,29.25,6.57,31.15,16.74,1.35,8.7-5.04,12.24-8.95,13.58h0Z"/><path class="b" d="M241.8,51.91c-1.74,6.81-7.07,11.34-15.48,13.19,8.42-3.9,12.97-11.14,11.69-19.05-1.14-7.07-7.3-14.67-18.67-17.21,8.51,.61,14.62,2.98,18.42,7.12,1.49,1.61,2.63,3.5,3.44,5.65,1.25,3.39,1.46,6.95,.6,10.31h0Z"/><path class="b" d="M225.97,64.85c5.95-4.57,8.74-11.64,7.37-18.99-1.46-7.7-7.05-13.84-15.3-16.88,11.93,2.21,18.39,9.94,19.55,17.14,1,6.29-1.63,14.27-11.62,18.73h0Z"/><path class="b" d="M222.15,31.8h-17.58c-.1-.06-.23-.11-.35-.15-3.35-1.35-7.14-2.36-11.21-2.96h21.55c2.79,.72,5.35,1.76,7.6,3.11h0Z"/><path class="b" d="M226.74,35.31h-15.72c-1.65-1.18-3.53-2.24-5.58-3.13h17.34c1.47,.91,2.79,1.96,3.97,3.13h0Z"/><path class="b" d="M321.41,28.69v3.11h-62.55c-2.02-1.47-4.47-2.5-7.39-3.11h69.94Z"/><path class="b" d="M321.41,32.18v3.13h-59.04c-.83-1.2-1.83-2.24-2.98-3.13h62.03Z"/><path class="b" d="M264.36,52.42c-1.81,6.75-6.37,11.08-13.25,12.63,8.79-4.36,11.72-13.13,10.65-20.33-.95-6.3-5.21-13.41-14.34-15.93,9.56,.83,15.14,5.17,17.07,13.24,.81,3.45,.77,7.04-.14,10.39h0Z"/><path class="b" d="M250.99,64.65c5.33-4.62,7.98-12.1,6.84-19.68-.51-3.47-1.77-6.6-3.68-9.27l-.02-.05h0c-.05-.11-.11-.18-.17-.26h-.02c-1.97-2.75-4.6-4.97-7.72-6.49,9.67,2.18,14.14,9.45,15.11,15.86,1.05,7.04-1.81,15.62-10.33,19.88h0Z"/><path class="b" d="M252.96,35.31h-14.63c-1.12-1.2-2.42-2.23-3.9-3.13h15.53c1.12,.94,2.12,1.98,3,3.13h0Z"/><path class="b" d="M249.48,31.8h-15.74c-2.56-1.44-5.63-2.47-9.25-3.11h19.44c2.04,.77,3.91,1.81,5.54,3.11h0Z"/><path class="b" d="M321.41,65.79h-50.32c10.07-4.68,12.39-13.18,7.91-20.22,15.35,6.2,29.58,12.9,42.41,20.22h0Zm-36.67-13.82c1.95,4.02,.28,7.56-3.04,10.57,5.09-.87,7.63-7.81,3.04-10.57h0Zm7.6,3.24c1.91,3.38,.44,6.37-3.02,8.38,5,.41,7.7-6.32,3.02-8.38h0Zm5.02,6.18l12.84,1.98-12.42-3.47-.42,1.49h0Z"/><path class="b" d="M311.9,80.61c2.47-.64,4.42-1.67,5.69-3.07l.03-.05h3.79v3.11h-9.51Z"/><path class="b" d="M317.97,77.11c.74-.94,1.18-2.01,1.24-3.13h2.19v3.13h-3.44Z"/><path class="b" d="M163.21,58.3c0-14.02,12.93-15.54,18.49-15.54,8.23,0,12.69,4.45,13.21,7.61,.21,1.2-.12,2.13-.93,2.64,.35-1.14-.07-2.41-1.21-3.61-2.09-2.18-6.21-3.82-10.6-3.82-1.74,0-3.53,.26-5.26,.84-4.04,1.38-10.62,5.05-9.21,14.01,1.93,10.36,14.32,17.06,31.57,17.06h104.88c3.46,0,7.09-1.73,7.54-3.51h6.65c-.09,1.12-.58,2.16-1.44,3.08-2.07,2.29-6.21,3.54-11.65,3.54h-105.97c-7.88,0-15.18-1.26-21.09-3.65-2.51-1.01-4.77-2.22-6.7-3.62l-.04-.03c-5.4-3.88-8.25-9.07-8.25-15h0Z"/><path class="b" d="M177.07,46.79c5.88-2.02,12.55-.09,15.37,2.85,1.07,1.14,1.46,2.27,1.09,3.3-1.14-2.21-4.49-3.87-8.62-4.19-4.37-.37-9.91,.89-12.44,5.43-1.39,2.49-1.32,5.57,.18,8.47,3.68,7.09,13.63,11.32,26.64,11.32h111.97c-.49,1.46-3.7,3.13-7.11,3.13h-104.88c-17.02,0-29.25-6.57-31.15-16.74-1.35-8.7,5.04-12.24,8.95-13.58h0Z"/><path class="b" d="M140.24,57.38c1.74-6.81,7.07-11.34,15.48-13.19-8.42,3.9-12.97,11.14-11.69,19.06,1.14,7.07,7.3,14.67,18.67,17.21-8.51-.61-14.62-2.98-18.42-7.12-1.49-1.61-2.63-3.5-3.44-5.65-1.25-3.39-1.46-6.95-.6-10.31h0Z"/><path class="b" d="M156.06,44.45c-5.95,4.57-8.74,11.64-7.37,18.99,1.46,7.7,7.05,13.84,15.3,16.88-11.93-2.21-18.39-9.94-19.55-17.14-1-6.29,1.63-14.27,11.61-18.73h0Z"/><path class="b" d="M159.89,77.49h17.58c.11,.06,.23,.11,.35,.15,3.35,1.35,7.14,2.36,11.21,2.96h-21.55c-2.79-.72-5.35-1.76-7.6-3.11h0Z"/><path class="b" d="M155.29,73.98h15.72c1.65,1.18,3.53,2.24,5.58,3.13h-17.34c-1.47-.9-2.79-1.96-3.97-3.13h0Z"/><path class="b" d="M60.63,80.61v-3.11h62.55c2.02,1.47,4.47,2.5,7.39,3.11H60.63Z"/><path class="b" d="M60.63,77.11v-3.13h59.04c.82,1.2,1.82,2.24,2.98,3.13H60.63Z"/><path class="b" d="M117.67,56.87c1.81-6.75,6.37-11.08,13.25-12.63-8.79,4.36-11.72,13.13-10.65,20.33,.95,6.31,5.21,13.41,14.34,15.92-9.56-.83-15.14-5.17-17.07-13.24-.81-3.45-.77-7.04,.14-10.39h0Z"/><path class="b" d="M131.04,44.65c-5.33,4.62-7.98,12.1-6.84,19.68,.51,3.47,1.77,6.6,3.68,9.27l.02,.05v.02c.05,.09,.11,.17,.17,.24l.02,.02c1.96,2.73,4.6,4.96,7.72,6.47-9.67-2.18-14.14-9.45-15.11-15.86-1.05-7.04,1.81-15.62,10.33-19.88h0Z"/><path class="b" d="M129.08,73.98h14.63c1.12,1.2,2.42,2.23,3.89,3.13h-15.53c-1.12-.94-2.12-1.98-3-3.13h0Z"/><path class="b" d="M132.55,77.49h15.74c2.56,1.44,5.63,2.47,9.25,3.11h-19.44c-2.04-.77-3.91-1.81-5.55-3.11h0Z"/><path class="b" d="M103.04,63.73c-15.35-6.2-29.58-12.9-42.41-20.22h50.32c-10.07,4.68-12.39,13.16-7.91,20.22h0Zm-18.35-15.82l-12.85-1.98,12.42,3.47,.42-1.49h0Zm8.04-2.21c-5-.4-7.7,6.34-3.02,8.38-1.91-3.36-.44-6.37,3.02-8.38h0Zm7.62,1.06c-5.09,.87-7.63,7.79-3.04,10.57-1.95-4.02-.28-7.56,3.04-10.57h0Z"/></g><g><path class="b" d="M330.14,28.69c-2.47,.64-4.42,1.67-5.68,3.07l-.04,.05h-3.79v-3.11h9.51Z"/><path class="b" d="M324.07,32.18c-.74,.94-1.17,2.01-1.24,3.13h-2.19v-3.13h3.44Z"/><path class="b" d="M478.83,50.99c0,14.02-12.93,15.54-18.49,15.54-8.23,0-12.69-4.45-13.21-7.61-.21-1.2,.12-2.13,.93-2.64-.35,1.14,.07,2.41,1.21,3.61,2.09,2.18,6.21,3.82,10.6,3.82,1.74,0,3.53-.26,5.26-.84,4.04-1.38,10.62-5.05,9.21-14.01-1.93-10.36-14.32-17.06-31.57-17.06h-104.88c-3.46,0-7.09,1.73-7.55,3.51h-6.65c.09-1.12,.58-2.16,1.44-3.08,2.07-2.29,6.21-3.54,11.65-3.54h105.96c7.88,0,15.18,1.26,21.09,3.65,2.51,1.01,4.77,2.23,6.7,3.62l.04,.03c5.4,3.88,8.25,9.07,8.25,15h0Z"/><path class="b" d="M464.97,62.5c-5.88,2.03-12.55,.09-15.37-2.85-1.07-1.14-1.46-2.27-1.09-3.3,1.14,2.21,4.49,3.87,8.62,4.19,4.37,.37,9.91-.89,12.44-5.43,1.39-2.49,1.32-5.57-.17-8.47-3.68-7.09-13.63-11.32-26.64-11.32h-111.97c.49-1.46,3.7-3.13,7.11-3.13h104.88c17.02,0,29.25,6.57,31.15,16.74,1.35,8.7-5.04,12.24-8.95,13.58h0Z"/><path class="b" d="M501.8,51.91c-1.74,6.81-7.07,11.34-15.48,13.19,8.42-3.9,12.97-11.14,11.69-19.05-1.14-7.07-7.3-14.67-18.67-17.21,8.51,.61,14.62,2.98,18.42,7.12,1.49,1.61,2.63,3.5,3.44,5.65,1.25,3.39,1.46,6.95,.6,10.31h0Z"/><path class="b" d="M485.97,64.85c5.95-4.57,8.74-11.64,7.37-18.99-1.46-7.7-7.05-13.84-15.3-16.88,11.93,2.21,18.39,9.94,19.55,17.14,1,6.29-1.63,14.27-11.62,18.73h0Z"/><path class="b" d="M482.15,31.8h-17.58c-.1-.06-.23-.11-.35-.15-3.35-1.35-7.14-2.36-11.21-2.96h21.55c2.79,.72,5.35,1.76,7.6,3.11h0Z"/><path class="b" d="M486.74,35.31h-15.72c-1.65-1.18-3.53-2.24-5.58-3.13h17.34c1.47,.91,2.79,1.96,3.97,3.13h0Z"/><path class="b" d="M581.41,28.69v3.11h-62.55c-2.02-1.47-4.47-2.5-7.39-3.11h69.94Z"/><path class="b" d="M581.41,32.18v3.13h-59.04c-.83-1.2-1.83-2.24-2.98-3.13h62.03Z"/><path class="b" d="M524.36,52.42c-1.81,6.75-6.37,11.08-13.25,12.63,8.79-4.36,11.72-13.13,10.65-20.33-.95-6.3-5.21-13.41-14.34-15.93,9.56,.83,15.14,5.17,17.07,13.24,.81,3.45,.77,7.04-.14,10.39h0Z"/><path class="b" d="M510.99,64.65c5.33-4.62,7.98-12.1,6.84-19.68-.51-3.47-1.77-6.6-3.68-9.27l-.02-.05h0c-.05-.11-.11-.18-.17-.26h-.02c-1.97-2.75-4.6-4.97-7.72-6.49,9.67,2.18,14.14,9.45,15.11,15.86,1.05,7.04-1.81,15.62-10.33,19.88h0Z"/><path class="b" d="M512.96,35.31h-14.63c-1.12-1.2-2.42-2.23-3.9-3.13h15.53c1.12,.94,2.12,1.98,3,3.13h0Z"/><path class="b" d="M509.48,31.8h-15.74c-2.56-1.44-5.63-2.47-9.25-3.11h19.44c2.04,.77,3.91,1.81,5.54,3.11h0Z"/><path class="b" d="M581.41,65.79h-50.32c10.07-4.68,12.39-13.18,7.91-20.22,15.35,6.2,29.58,12.9,42.41,20.22h0Zm-36.67-13.82c1.95,4.02,.28,7.56-3.04,10.57,5.09-.87,7.63-7.81,3.04-10.57h0Zm7.6,3.24c1.91,3.38,.44,6.37-3.02,8.38,5,.41,7.7-6.32,3.02-8.38h0Zm5.02,6.18l12.84,1.98-12.42-3.47-.42,1.49h0Z"/><path class="b" d="M571.9,80.61c2.47-.64,4.42-1.67,5.69-3.07l.03-.05h3.79v3.11h-9.51Z"/><path class="b" d="M577.97,77.11c.74-.94,1.18-2.01,1.24-3.13h2.19v3.13h-3.44Z"/><path class="b" d="M423.21,58.3c0-14.02,12.93-15.54,18.49-15.54,8.23,0,12.69,4.45,13.21,7.61,.21,1.2-.12,2.13-.93,2.64,.35-1.14-.07-2.41-1.21-3.61-2.09-2.18-6.21-3.82-10.6-3.82-1.74,0-3.53,.26-5.26,.84-4.04,1.38-10.62,5.05-9.21,14.01,1.93,10.36,14.32,17.06,31.57,17.06h104.88c3.46,0,7.09-1.73,7.54-3.51h6.65c-.09,1.12-.58,2.16-1.44,3.08-2.07,2.29-6.21,3.54-11.65,3.54h-105.97c-7.88,0-15.18-1.26-21.09-3.65-2.51-1.01-4.77-2.22-6.7-3.62l-.04-.03c-5.4-3.88-8.25-9.07-8.25-15h0Z"/><path class="b" d="M437.07,46.79c5.88-2.02,12.55-.09,15.37,2.85,1.07,1.14,1.46,2.27,1.09,3.3-1.14-2.21-4.49-3.87-8.62-4.19-4.37-.37-9.91,.89-12.44,5.43-1.39,2.49-1.32,5.57,.18,8.47,3.68,7.09,13.63,11.32,26.64,11.32h111.97c-.49,1.46-3.7,3.13-7.11,3.13h-104.88c-17.02,0-29.25-6.57-31.15-16.74-1.35-8.7,5.04-12.24,8.95-13.58h0Z"/><path class="b" d="M400.24,57.38c1.74-6.81,7.07-11.34,15.48-13.19-8.42,3.9-12.97,11.14-11.69,19.06,1.14,7.07,7.3,14.67,18.67,17.21-8.51-.61-14.62-2.98-18.42-7.12-1.49-1.61-2.63-3.5-3.44-5.65-1.25-3.39-1.46-6.95-.6-10.31h0Z"/><path class="b" d="M416.06,44.45c-5.95,4.57-8.74,11.64-7.37,18.99,1.46,7.7,7.05,13.84,15.3,16.88-11.93-2.21-18.39-9.94-19.55-17.14-1-6.29,1.63-14.27,11.61-18.73h0Z"/><path class="b" d="M419.89,77.49h17.58c.11,.06,.23,.11,.35,.15,3.35,1.35,7.14,2.36,11.21,2.96h-21.55c-2.79-.72-5.35-1.76-7.6-3.11h0Z"/><path class="b" d="M415.29,73.98h15.72c1.65,1.18,3.53,2.24,5.58,3.13h-17.34c-1.47-.9-2.79-1.96-3.97-3.13h0Z"/><path class="b" d="M320.63,80.61v-3.11h62.55c2.02,1.47,4.47,2.5,7.39,3.11h-69.94Z"/><path class="b" d="M320.63,77.11v-3.13h59.04c.82,1.2,1.82,2.24,2.98,3.13h-62.03Z"/><path class="b" d="M377.67,56.87c1.81-6.75,6.37-11.08,13.25-12.63-8.79,4.36-11.72,13.13-10.65,20.33,.95,6.31,5.21,13.41,14.34,15.92-9.56-.83-15.14-5.17-17.07-13.24-.81-3.45-.77-7.04,.14-10.39h0Z"/><path class="b" d="M391.04,44.65c-5.33,4.62-7.98,12.1-6.84,19.68,.51,3.47,1.77,6.6,3.68,9.27l.02,.05v.02c.05,.09,.11,.17,.17,.24l.02,.02c1.96,2.73,4.6,4.96,7.72,6.47-9.67-2.18-14.14-9.45-15.11-15.86-1.05-7.04,1.81-15.62,10.33-19.88h0Z"/><path class="b" d="M389.08,73.98h14.63c1.12,1.2,2.42,2.23,3.89,3.13h-15.53c-1.12-.94-2.12-1.98-3-3.13h0Z"/><path class="b" d="M392.55,77.49h15.74c2.56,1.44,5.63,2.47,9.25,3.11h-19.44c-2.04-.77-3.91-1.81-5.55-3.11h0Z"/><path class="b" d="M363.04,63.73c-15.35-6.2-29.58-12.9-42.41-20.22h50.32c-10.07,4.68-12.39,13.16-7.91,20.22h0Zm-18.35-15.82l-12.85-1.98,12.42,3.47,.42-1.49h0Zm8.04-2.21c-5-.4-7.7,6.34-3.02,8.38-1.91-3.36-.44-6.37,3.02-8.38h0Zm7.62,1.06c-5.09,.87-7.63,7.79-3.04,10.57-1.95-4.02-.28-7.56,3.04-10.57h0Z"/></g><g><path class="b" d="M590.1,28.69c-2.47,.64-4.42,1.67-5.68,3.07l-.04,.05h-3.79v-3.11h9.51Z"/><path class="b" d="M584.03,32.18c-.74,.94-1.17,2.01-1.24,3.13h-2.19v-3.13h3.44Z"/><path class="b" d="M738.79,50.99c0,14.02-12.93,15.54-18.49,15.54-8.23,0-12.69-4.45-13.21-7.61-.21-1.2,.12-2.13,.93-2.64-.35,1.14,.07,2.41,1.21,3.61,2.09,2.18,6.21,3.82,10.6,3.82,1.74,0,3.53-.26,5.26-.84,4.04-1.38,10.62-5.05,9.21-14.01-1.93-10.36-14.32-17.06-31.57-17.06h-104.88c-3.46,0-7.09,1.73-7.55,3.51h-6.65c.09-1.12,.58-2.16,1.44-3.08,2.07-2.29,6.21-3.54,11.65-3.54h105.96c7.88,0,15.18,1.26,21.09,3.65,2.51,1.01,4.77,2.23,6.7,3.62l.04,.03c5.4,3.88,8.25,9.07,8.25,15h0Z"/><path class="b" d="M724.93,62.5c-5.88,2.03-12.55,.09-15.37-2.85-1.07-1.14-1.46-2.27-1.09-3.3,1.14,2.21,4.49,3.87,8.62,4.19,4.37,.37,9.91-.89,12.44-5.43,1.39-2.49,1.32-5.57-.17-8.47-3.68-7.09-13.63-11.32-26.64-11.32h-111.97c.49-1.46,3.7-3.13,7.11-3.13h104.88c17.02,0,29.25,6.57,31.15,16.74,1.35,8.7-5.04,12.24-8.95,13.58h0Z"/><path class="b" d="M761.76,51.91c-1.74,6.81-7.07,11.34-15.48,13.19,8.42-3.9,12.97-11.14,11.69-19.05-1.14-7.07-7.3-14.67-18.67-17.21,8.51,.61,14.62,2.98,18.42,7.12,1.49,1.61,2.63,3.5,3.44,5.65,1.25,3.39,1.46,6.95,.6,10.31h0Z"/><path class="b" d="M745.93,64.85c5.95-4.57,8.74-11.64,7.37-18.99-1.46-7.7-7.05-13.84-15.3-16.88,11.93,2.21,18.39,9.94,19.55,17.14,1,6.29-1.63,14.27-11.62,18.73h0Z"/><path class="b" d="M742.11,31.8h-17.58c-.1-.06-.23-.11-.35-.15-3.35-1.35-7.14-2.36-11.21-2.96h21.55c2.79,.72,5.35,1.76,7.6,3.11h0Z"/><path class="b" d="M746.71,35.31h-15.72c-1.65-1.18-3.53-2.24-5.58-3.13h17.34c1.47,.91,2.79,1.96,3.97,3.13h0Z"/><path class="b" d="M841.37,28.69v3.11h-62.55c-2.02-1.47-4.47-2.5-7.39-3.11h69.94Z"/><path class="b" d="M841.37,32.18v3.13h-59.04c-.83-1.2-1.83-2.24-2.98-3.13h62.03Z"/><path class="b" d="M784.33,52.42c-1.81,6.75-6.37,11.08-13.25,12.63,8.79-4.36,11.72-13.13,10.65-20.33-.95-6.3-5.21-13.41-14.34-15.93,9.56,.83,15.14,5.17,17.07,13.24,.81,3.45,.77,7.04-.14,10.39h0Z"/><path class="b" d="M770.96,64.65c5.33-4.62,7.98-12.1,6.84-19.68-.51-3.47-1.77-6.6-3.68-9.27l-.02-.05h0c-.05-.11-.11-.18-.17-.26h-.02c-1.97-2.75-4.6-4.97-7.72-6.49,9.67,2.18,14.14,9.45,15.11,15.86,1.05,7.04-1.81,15.62-10.33,19.88h0Z"/><path class="b" d="M772.92,35.31h-14.63c-1.12-1.2-2.42-2.23-3.9-3.13h15.53c1.12,.94,2.12,1.98,3,3.13h0Z"/><path class="b" d="M769.45,31.8h-15.74c-2.56-1.44-5.63-2.47-9.25-3.11h19.44c2.04,.77,3.91,1.81,5.54,3.11h0Z"/><path class="b" d="M841.37,65.79h-50.32c10.07-4.68,12.39-13.18,7.91-20.22,15.35,6.2,29.58,12.9,42.41,20.22h0Zm-36.67-13.82c1.95,4.02,.28,7.56-3.04,10.57,5.09-.87,7.63-7.81,3.04-10.57h0Zm7.6,3.24c1.91,3.38,.44,6.37-3.02,8.38,5,.41,7.7-6.32,3.02-8.38h0Zm5.02,6.18l12.84,1.98-12.42-3.47-.42,1.49h0Z"/><path class="b" d="M831.86,80.61c2.47-.64,4.42-1.67,5.69-3.07l.03-.05h3.79v3.11h-9.51Z"/><path class="b" d="M837.93,77.11c.74-.94,1.18-2.01,1.24-3.13h2.19v3.13h-3.44Z"/><path class="b" d="M683.17,58.3c0-14.02,12.93-15.54,18.49-15.54,8.23,0,12.69,4.45,13.21,7.61,.21,1.2-.12,2.13-.93,2.64,.35-1.14-.07-2.41-1.21-3.61-2.09-2.18-6.21-3.82-10.6-3.82-1.74,0-3.53,.26-5.26,.84-4.04,1.38-10.62,5.05-9.21,14.01,1.93,10.36,14.32,17.06,31.57,17.06h104.88c3.46,0,7.09-1.73,7.54-3.51h6.65c-.09,1.12-.58,2.16-1.44,3.08-2.07,2.29-6.21,3.54-11.65,3.54h-105.97c-7.88,0-15.18-1.26-21.09-3.65-2.51-1.01-4.77-2.22-6.7-3.62l-.04-.03c-5.4-3.88-8.25-9.07-8.25-15h0Z"/><path class="b" d="M697.03,46.79c5.88-2.02,12.55-.09,15.37,2.85,1.07,1.14,1.46,2.27,1.09,3.3-1.14-2.21-4.49-3.87-8.62-4.19-4.37-.37-9.91,.89-12.44,5.43-1.39,2.49-1.32,5.57,.18,8.47,3.68,7.09,13.63,11.32,26.64,11.32h111.97c-.49,1.46-3.7,3.13-7.11,3.13h-104.88c-17.02,0-29.25-6.57-31.15-16.74-1.35-8.7,5.04-12.24,8.95-13.58h0Z"/><path class="b" d="M660.2,57.38c1.74-6.81,7.07-11.34,15.48-13.19-8.42,3.9-12.97,11.14-11.69,19.06,1.14,7.07,7.3,14.67,18.67,17.21-8.51-.61-14.62-2.98-18.42-7.12-1.49-1.61-2.63-3.5-3.44-5.65-1.25-3.39-1.46-6.95-.6-10.31h0Z"/><path class="b" d="M676.03,44.45c-5.95,4.57-8.74,11.64-7.37,18.99,1.46,7.7,7.05,13.84,15.3,16.88-11.93-2.21-18.39-9.94-19.55-17.14-1-6.29,1.63-14.27,11.61-18.73h0Z"/><path class="b" d="M679.86,77.49h17.58c.11,.06,.23,.11,.35,.15,3.35,1.35,7.14,2.36,11.21,2.96h-21.55c-2.79-.72-5.35-1.76-7.6-3.11h0Z"/><path class="b" d="M675.26,73.98h15.72c1.65,1.18,3.53,2.24,5.58,3.13h-17.34c-1.47-.9-2.79-1.96-3.97-3.13h0Z"/><path class="b" d="M580.59,80.61v-3.11h62.55c2.02,1.47,4.47,2.5,7.39,3.11h-69.94Z"/><path class="b" d="M580.59,77.11v-3.13h59.04c.82,1.2,1.82,2.24,2.98,3.13h-62.03Z"/><path class="b" d="M637.64,56.87c1.81-6.75,6.37-11.08,13.25-12.63-8.79,4.36-11.72,13.13-10.65,20.33,.95,6.31,5.21,13.41,14.34,15.92-9.56-.83-15.14-5.17-17.07-13.24-.81-3.45-.77-7.04,.14-10.39h0Z"/><path class="b" d="M651.01,44.65c-5.33,4.62-7.98,12.1-6.84,19.68,.51,3.47,1.77,6.6,3.68,9.27l.02,.05v.02c.05,.09,.11,.17,.17,.24l.02,.02c1.96,2.73,4.6,4.96,7.72,6.47-9.67-2.18-14.14-9.45-15.11-15.86-1.05-7.04,1.81-15.62,10.33-19.88h0Z"/><path class="b" d="M649.04,73.98h14.63c1.12,1.2,2.42,2.23,3.89,3.13h-15.53c-1.12-.94-2.12-1.98-3-3.13h0Z"/><path class="b" d="M652.52,77.49h15.74c2.56,1.44,5.63,2.47,9.25,3.11h-19.44c-2.04-.77-3.91-1.81-5.55-3.11h0Z"/><path class="b" d="M623,63.73c-15.35-6.2-29.58-12.9-42.41-20.22h50.32c-10.07,4.68-12.39,13.16-7.91,20.22h0Zm-18.35-15.82l-12.85-1.98,12.42,3.47,.42-1.49h0Zm8.04-2.21c-5-.4-7.7,6.34-3.02,8.38-1.91-3.36-.44-6.37,3.02-8.38h0Zm7.62,1.06c-5.09,.87-7.63,7.79-3.04,10.57-1.95-4.02-.28-7.56,3.04-10.57h0Z"/></g></svg>