<?xml version="1.0" encoding="UTF-8"?><svg id="a" xmlns="http://www.w3.org/2000/svg" xmlns:xlink="http://www.w3.org/1999/xlink" viewBox="0 0 443 155"><defs><style>.f{fill:none;}.g{fill:#fff;}.h{fill:#ef3a58;}.i{fill:#fec02d;}.j{fill:#a1c0e5;}.k{fill:#5fc6cb;}.l{clip-path:url(#c);}.m{clip-path:url(#b);}.n{clip-path:url(#e);}.o{clip-path:url(#d);}</style><clipPath id="b"><rect class="f" x="32.14" y="23.46" width="378.33" height="103.01"/></clipPath><clipPath id="c"><rect class="f" x="32.14" y="23.46" width="378.33" height="103.01"/></clipPath><clipPath id="d"><rect class="f" x="32.14" y="23.46" width="378.33" height="103.01"/></clipPath><clipPath id="e"><rect class="f" x="32.14" y="23.46" width="378.33" height="103.01"/></clipPath></defs><g><polygon class="i" points="141.73 127 112.62 127 101.71 95.54 111.45 82.93 117.87 74.62 111.45 66.3 77.42 22.23 105.4 22.23 141.73 127"/><polygon class="j" points="58.31 61.5 58.31 74.61 30.81 74.61 30.81 25.89 58.31 61.5"/><g><polygon class="h" points="85.82 68.23 87.29 70.99 86.21 68.09 85.82 68.23"/><path class="h" d="M86.44,66.35c-.46,.87-1.35,1.03-2.31,.66,.65,1.03,2.56,.55,2.31-.66Z"/><path class="h" d="M90.16,70.61c.46-.87,1.34-1.03,2.31-.66-.65-1.03-2.56-.55-2.31,.66Z"/><path class="h" d="M86.03,64.4c-.6,.97-1.64,1.17-2.8,.99,.95,.85,2.87,.32,2.8-.99Z"/><path class="h" d="M90.56,72.55c.61-.97,1.64-1.17,2.8-.98-.95-.85-2.87-.32-2.8,.98Z"/><polygon class="h" points="57.12 25.29 55.65 22.52 56.73 25.43 57.12 25.29"/><path class="h" d="M104.05,66.3l-4.63-5.99-29.4-38.08H35.26l40.45,52.39h34.75l-6.42-8.32Zm-32.18-21.59c-.57-.9-1.67-1.78-3.06-1.59-.76,.1-1.43,.57-1.85,1.29-1.02,1.76-.48,4.3,1.46,6.81l16.68,21.55c-.4,.12-1.25-.25-1.75-.9l-15.63-20.19c-2.54-3.28-2.9-6.6-.92-8.48,1.73-1.55,3.47-.84,4.35-.29,1.33,.83,1.89,2.4,1.66,3.38-.09,.38-.29,.62-.57,.7,.32-.55,.19-1.44-.35-2.28Zm12.27,14.12c-1.41,1.25-3.74,1.97-5.96,.96,1.82,.34,3.88-.26,5.39-1.6,.69-.61,1.2-1.32,1.51-2.08,0,0,0,0,0-.01h0s.02-.05,.03-.07h0c.31-.79,.41-1.63,.29-2.45,.96,2.18,0,4.12-1.27,5.26Zm1.47-5.04c1.24,1.96,1.11,3.68-.4,5.25-.65,.67-1.45,1.19-2.33,1.51-1.77,.65-3.41,.42-4.78-.68,2.28,1.05,4.66,.31,6.1-.96,1.26-1.12,2.2-2.99,1.4-5.12Zm-2.8-.79c.1-.39,.13-.8,.11-1.21l2.31,2.99c-.04,.35-.12,.7-.25,1.04l-2.18-2.82Zm2.31,.1c.13,.51,.18,1.02,.13,1.53l-2.35-3.03c-.06-.71-.29-1.45-.69-2.24l2.9,3.74Zm-2.53-.11c-.13,.53-.38,1.02-.74,1.5-.57,.74-1.33,1.31-2.2,1.64-1.77,.68-3.57,.32-5.24-1.02,2.12,1.04,4.4,.85,5.97-.58,1.4-1.27,2.17-3.58,1.04-6.14,1.13,1.73,1.52,3.25,1.16,4.6Zm-2.28,1.47c-1.25,1.13-3.41,1.8-5.89,.54,1.9,.47,3.89-.04,5.32-1.4,1.49-1.42,2.02-3.41,1.47-5.45,1.29,2.62,.53,5.01-.89,6.3Zm.78-3.69l-2.34-3.03c.02-.49-.03-1.01-.14-1.54l2.58,3.34c.02,.42-.02,.83-.1,1.23Zm-.35-3.33c.26,.64,.41,1.29,.44,1.92l-2.62-3.38s-.01-.06-.02-.09c-.2-.85-.54-1.73-1.01-2.6l3.21,4.15Zm-19.52-25.21l14.78,19.09c1.17,1.52,1.98,3.11,2.33,4.61,.15,.63,.22,1.25,.19,1.83h0c-.06,1.63-.78,2.94-2.1,3.82-3.11,2.08-5.38-.19-6.21-1.25-1.22-1.59-.9-3.1-.28-3.67,.24-.22,.49-.29,.72-.21-.3,.1-.52,.37-.61,.77-.18,.72,.08,1.76,.73,2.6,.26,.34,.58,.64,.97,.89,.9,.57,2.7,1.3,4.48-.3,2.01-1.91,1.65-5.29-.91-8.6l-15.13-19.55h1.04Zm-1.17,0l15.18,19.61c2.54,3.28,2.9,6.61,.92,8.48-1.73,1.55-3.47,.84-4.35,.29-1.33-.83-1.89-2.4-1.66-3.38,.09-.38,.28-.62,.57-.7-.32,.55-.19,1.44,.35,2.28,.57,.9,1.68,1.78,3.06,1.59,.76-.1,1.43-.57,1.85-1.29,1.03-1.76,.48-4.3-1.45-6.81l-15.54-20.07h1.06Zm-3.81,0l5.78,7.46c-2.54-1.25-4.77-.43-5.67,1.47-.72-3.07-1.27-6.06-1.61-8.93h1.5Zm-10.26,0l4.64,6,5.93,7.66c-.15,.33-.23,.68-.25,1.04l-5.59-7.22-5.79-7.48h1.06Zm4.83,9.12l-7.06-9.12h1.05l5.93,7.66,5.57,7.2c-.03,.61,.11,1.23,.41,1.88l-5.9-7.61Zm6.92,3.13c.65-.67,1.45-1.19,2.33-1.51,1.77-.65,3.41-.42,4.78,.68-2.28-1.05-4.66-.31-6.1,.96-1.26,1.12-2.2,2.99-1.4,5.12-1.24-1.96-1.11-3.68,.4-5.25Zm1.08,.21c1.41-1.25,3.74-1.97,5.96-.96-1.82-.34-3.88,.26-5.39,1.6-.69,.61-1.2,1.32-1.51,2.08,0,0,0,0,0,.01h0s-.02,.05-.03,.07h0c-.31,.79-.41,1.63-.29,2.45-.96-2.18,0-4.12,1.27-5.26Zm1.33,5.83c-.1,.39-.13,.8-.11,1.21l-2.31-2.99c.04-.35,.12-.7,.25-1.04l2.18,2.82Zm-2.31-.1c-.13-.51-.18-1.02-.13-1.53l2.35,3.03c.06,.71,.29,1.45,.69,2.24l-2.9-3.74Zm2.53,.11c.13-.53,.38-1.02,.74-1.5,.57-.74,1.33-1.31,2.2-1.64,1.77-.68,3.57-.32,5.24,1.02-2.12-1.04-4.41-.85-5.97,.57-1.4,1.27-2.17,3.58-1.04,6.15-1.13-1.73-1.52-3.26-1.16-4.6Zm2.28-1.47c1.25-1.13,3.41-1.8,5.89-.54-1.9-.47-3.89,.04-5.32,1.4-1.49,1.42-2.02,3.41-1.47,5.45-1.29-2.63-.53-5.01,.89-6.3Zm-.78,3.69l2.34,3.03c-.02,.49,.03,1.01,.14,1.54l-2.58-3.34c-.02-.42,.02-.83,.1-1.23Zm.35,3.33c-.26-.64-.41-1.29-.44-1.92l2.62,3.38s.01,.06,.02,.09c.2,.85,.54,1.73,1.01,2.6l-3.21-4.15Zm20.53,26.52l-15.79-20.4c-1.17-1.52-1.98-3.11-2.33-4.6-.15-.63-.22-1.25-.2-1.83h0c.06-1.63,.78-2.94,2.1-3.82,3.11-2.08,5.38,.19,6.21,1.26,1.23,1.58,.9,3.1,.28,3.67-.23,.22-.49,.29-.72,.21,.3-.1,.53-.37,.62-.77,.17-.72-.08-1.76-.73-2.61-.26-.33-.58-.64-.97-.89-.91-.57-2.7-1.3-4.48,.3-2.01,1.91-1.65,5.29,.92,8.61l15.63,20.19c.51,.67,1.44,1.11,1.9,.93l.99,1.28c-.26,.15-.57,.21-.9,.18-.82-.06-1.71-.67-2.52-1.72Zm1.55,2.01l-.56-.73c.51,.38,1.03,.6,1.53,.64h.02l.07,.09h-1.05Zm1.18,0l-.06-.08c.32,0,.62-.07,.88-.22l.23,.3h-1.05Zm-4.53-10.78c2.54,1.25,4.77,.43,5.67-1.47,.91,3.88,1.54,7.61,1.83,11.16l-7.5-9.68Zm9.07,10.78c-.91-3.88-1.55-7.61-1.83-11.16l7.5,9.69c-2.54-1.25-4.77-.44-5.67,1.48Zm9.54,0l-13.14-16.98c.14-.34,.23-.68,.25-1.04l13.95,18.02h-1.05Zm1.18,0l-14.07-18.17c.03-.6-.11-1.23-.41-1.88l15.53,20.06h-1.05Z"/><path class="h" d="M56.91,29.12c.6-.97,1.63-1.18,2.8-.99-.95-.85-2.87-.31-2.8,.99Z"/><polygon class="h" points="90.38 68.86 90.78 68.73 89.3 65.96 90.38 68.86"/><path class="h" d="M56.5,27.17c.47-.87,1.35-1.03,2.31-.66-.65-1.03-2.55-.55-2.31,.66Z"/></g><g><path class="k" d="M86.44,82.86c.25-1.21-1.65-1.68-2.31-.66,.96-.37,1.85-.21,2.31,.66Z"/><path class="k" d="M59.71,121.08c-1.16,.19-2.2-.02-2.8-.99-.08,1.3,1.85,1.83,2.8,.99Z"/><polygon class="k" points="87.29 78.22 85.82 80.98 86.21 81.12 87.29 78.22"/><polygon class="k" points="55.65 126.69 57.12 123.92 56.73 123.78 55.65 126.69"/><path class="k" d="M101.76,74.61l-15.52,20.05c.3-.65,.44-1.28,.41-1.88l14.06-18.16h-.13l-13.94,18.01c-.02-.36-.11-.7-.25-1.04l13.14-16.97h-9.52c.9,1.91,3.13,2.71,5.66,1.47l-7.5,9.69c.28-3.55,.92-7.28,1.83-11.15h-3.49l-.23,.29c-.26-.15-.56-.23-.88-.22l.05-.07h-.13l-.06,.08h-.02c-.5,.04-1.02,.26-1.53,.64l.56-.72h-8.56l-40.45,52.39h34.75l29.4-38.08,4.63-5.99,6.42-8.32h-8.7Zm-13.33,1.09c-.29,3.55-.92,7.28-1.83,11.16-.9-1.91-3.14-2.72-5.67-1.47l7.5-9.68Zm-21.48,29.1c.42,.72,1.1,1.19,1.85,1.29,1.39,.19,2.49-.69,3.06-1.59,.54-.84,.67-1.73,.35-2.28,.28,.08,.48,.32,.57,.7,.23,.98-.33,2.55-1.66,3.38-.88,.56-2.62,1.26-4.35-.29-1.98-1.87-1.61-5.2,.92-8.48l15.63-20.19c.51-.65,1.36-1.03,1.75-.9l-16.68,21.55c-1.94,2.5-2.48,5.05-1.46,6.81Zm15.77-28.19c.81-1.05,1.71-1.66,2.52-1.72,.33-.03,.64,.03,.9,.18l-.99,1.28c-.46-.18-1.39,.27-1.9,.93l-15.63,20.19c-2.57,3.32-2.93,6.7-.92,8.61,1.78,1.6,3.57,.88,4.48,.3,.39-.25,.71-.55,.97-.89,.65-.84,.9-1.88,.73-2.61-.1-.4-.32-.67-.62-.77,.23-.08,.49,0,.72,.21,.62,.57,.95,2.09-.28,3.67-.83,1.07-3.09,3.34-6.21,1.26-1.32-.88-2.05-2.2-2.1-3.81h0c-.02-.59,.05-1.21,.2-1.84,.35-1.49,1.16-3.08,2.33-4.6l15.79-20.4Zm-20.53,26.52l3.21-4.15c-.47,.87-.81,1.75-1.01,2.6,0,.03-.02,.06-.02,.09l-2.62,3.38c.04-.63,.19-1.28,.44-1.92Zm2.13-1.23c-.11,.53-.15,1.04-.14,1.54l-2.34,3.03c-.08-.4-.12-.81-.1-1.23l2.58-3.34Zm-1.12,7.4c1.43,1.35,3.41,1.86,5.32,1.4-2.48,1.26-4.64,.59-5.89-.54-1.43-1.29-2.18-3.68-.89-6.3-.55,2.04-.03,4.03,1.47,5.45Zm-.65,.93c1.57,1.42,3.85,1.62,5.97,.57-1.66,1.34-3.47,1.7-5.24,1.02-.87-.33-1.63-.9-2.2-1.64-.36-.47-.61-.97-.74-1.5-.35-1.35,.03-2.87,1.16-4.6-1.13,2.57-.36,4.88,1.04,6.14Zm-4.74-1.43l2.9-3.74c-.4,.79-.63,1.53-.69,2.24l-2.35,3.03c-.05-.51,0-1.02,.13-1.53Zm2.31-.1l-2.18,2.82c-.12-.34-.21-.69-.25-1.04l2.31-2.99c-.02,.42,.02,.82,.11,1.21Zm-2.31,3.01h0s.02,.05,.03,.08h0s0,.01,0,.01c.31,.76,.81,1.47,1.51,2.08,1.51,1.34,3.57,1.94,5.39,1.6-2.22,1.01-4.55,.29-5.96-.96-1.28-1.14-2.23-3.08-1.27-5.26-.13,.83-.03,1.66,.29,2.45Zm.91,2.89c1.44,1.27,3.82,2.01,6.1,.96-1.37,1.09-3.01,1.33-4.78,.68-.88-.32-1.68-.85-2.33-1.51-1.5-1.57-1.64-3.29-.4-5.25-.8,2.13,.14,4,1.4,5.12Zm-14.98,12.38l7.06-9.12,5.9-7.61c-.3,.65-.44,1.28-.41,1.88l-5.57,7.2-5.93,7.66h-1.05Zm2.23,0h-1.06l5.79-7.48,5.59-7.22c.02,.35,.11,.71,.25,1.04l-5.93,7.66-4.64,6Zm8.76,0c.34-2.87,.89-5.86,1.61-8.93,.9,1.9,3.13,2.72,5.67,1.47l-5.78,7.46h-1.5Zm4.26,0l15.54-20.07c1.94-2.5,2.48-5.05,1.45-6.81-.42-.72-1.09-1.19-1.85-1.29-1.38-.19-2.49,.69-3.06,1.59-.54,.84-.67,1.73-.35,2.28-.28-.08-.48-.32-.57-.7-.23-.98,.33-2.55,1.66-3.38,.88-.56,2.62-1.26,4.35,.29,1.98,1.87,1.61,5.2-.92,8.48l-15.18,19.61h-1.06Zm2.23,0h-1.04l15.13-19.56c2.57-3.32,2.93-6.7,.91-8.6-1.78-1.6-3.58-.88-4.48-.3-.39,.25-.72,.56-.97,.89-.65,.84-.91,1.88-.73,2.6,.09,.4,.31,.67,.61,.77-.23,.08-.49,0-.72-.21-.62-.57-.95-2.09,.28-3.67,.83-1.07,3.1-3.34,6.21-1.25,1.32,.88,2.04,2.19,2.1,3.81h0c.02,.59-.04,1.21-.19,1.84-.35,1.49-1.16,3.09-2.33,4.61l-14.78,19.09Zm19.52-25.21l-3.21,4.15c.47-.87,.81-1.75,1.01-2.6,0-.03,.02-.06,.02-.09l2.62-3.38c-.04,.63-.19,1.28-.44,1.92Zm-2.13,1.23c.11-.53,.15-1.05,.14-1.54l2.34-3.03c.08,.4,.12,.81,.1,1.23l-2.58,3.34Zm1.12-7.4c-1.43-1.35-3.41-1.86-5.32-1.4,2.48-1.26,4.64-.59,5.89,.54,1.42,1.29,2.18,3.68,.89,6.3,.55-2.04,.03-4.03-1.47-5.45Zm.65-.93c-1.57-1.42-3.85-1.62-5.97-.58,1.66-1.34,3.46-1.7,5.24-1.02,.87,.33,1.63,.9,2.2,1.64,.36,.47,.61,.97,.74,1.5,.35,1.35-.03,2.87-1.16,4.6,1.13-2.57,.36-4.88-1.04-6.14Zm4.74,1.43l-2.9,3.74c.4-.79,.63-1.53,.69-2.24l2.35-3.03c.05,.51,0,1.02-.13,1.53Zm-2.31,.1l2.18-2.82c.12,.34,.21,.69,.25,1.04l-2.31,2.99c.02-.42-.02-.82-.11-1.21Zm2.31-3.01h0s-.02-.05-.03-.08h0s0,0,0-.01c-.31-.76-.81-1.47-1.51-2.08-1.51-1.34-3.57-1.94-5.39-1.6,2.22-1.01,4.55-.29,5.96,.96,1.28,1.14,2.23,3.08,1.27,5.26,.13-.83,.03-1.66-.29-2.45Zm-.91-2.89c-1.44-1.27-3.82-2.01-6.1-.96,1.37-1.1,3.01-1.33,4.78-.68,.88,.32,1.68,.85,2.33,1.51,1.5,1.57,1.64,3.29,.4,5.25,.8-2.13-.14-4-1.4-5.12Z"/><polygon class="k" points="90.78 80.48 90.38 80.35 89.3 83.25 90.78 80.48"/><path class="k" d="M93.36,77.64c-1.16,.19-2.19,0-2.8-.98-.07,1.3,1.85,1.83,2.8,.98Z"/><path class="k" d="M56.5,122.04c-.24,1.21,1.66,1.69,2.31,.66-.96,.37-1.84,.21-2.31-.66Z"/><path class="k" d="M83.23,83.82c1.16-.19,2.2,.01,2.8,.99,.07-1.3-1.85-1.83-2.8-.99Z"/><path class="k" d="M92.46,79.26c-.96,.37-1.85,.21-2.31-.66-.25,1.21,1.65,1.68,2.31,.66Z"/></g></g><g><polygon class="g" points="169.81 67.44 169.81 69.51 164.94 69.51 164.94 83.89 162.78 83.89 162.78 69.51 157.94 69.51 157.94 67.44 169.81 67.44"/><polygon class="g" points="176.48 81.83 184.13 81.83 184.13 83.9 174.3 83.9 174.3 67.44 184.01 67.44 184.01 69.51 176.48 69.51 176.48 74.56 183.42 74.56 183.42 76.61 176.48 76.61 176.48 81.83"/><polygon class="g" points="209.23 83.89 206.55 83.89 199.45 76 199.45 83.89 197.27 83.89 197.27 67.44 199.45 67.44 199.45 74.87 206.32 67.44 209 67.44 201.73 75.43 209.23 83.89"/><g class="m"><path class="g" d="M212.57,67.44h2.19v10.84c0,2.33,1.43,3.79,4,3.79s4-1.46,4-3.79v-10.84h2.16v10.93c0,1.76-.56,3.2-1.72,4.26-1.15,1.06-2.63,1.58-4.44,1.58s-3.31-.52-4.47-1.58c-1.15-1.06-1.72-2.49-1.72-4.26v-10.93Z"/><path class="g" d="M232.79,69.48v6.14h4.4c.82,0,1.5-.31,2.07-.89,.59-.61,.87-1.34,.87-2.19s-.28-1.58-.87-2.16c-.57-.59-1.25-.89-2.07-.89h-4.4Zm7.57,14.41l-3.69-6.3h-3.88v6.3h-2.19v-16.46h6.58c1.41,0,2.61,.49,3.62,1.5,1.01,.99,1.51,2.19,1.51,3.6,0,1.06-.33,2.05-.96,2.92-.63,.87-1.43,1.5-2.44,1.86l3.88,6.58h-2.42Z"/></g><path class="g" d="M250.14,78.16h5.9l-2.96-8.11-2.94,8.11Zm7.99,5.74l-1.34-3.69h-7.41l-1.34,3.69h-2.33l6.14-16.46h2.47l6.13,16.46h-2.33Z"/><polygon class="g" points="283.1 67.44 285.26 67.44 285.26 83.89 283.1 83.89 283.1 76.49 275.1 76.49 275.1 83.89 272.92 83.89 272.92 67.44 275.1 67.44 275.1 74.42 283.1 74.42 283.1 67.44"/><path class="g" d="M293.98,78.16h5.9l-2.96-8.11-2.94,8.11Zm7.99,5.74l-1.34-3.69h-7.41l-1.34,3.69h-2.33l6.14-16.46h2.47l6.14,16.46h-2.33Z"/><polygon class="g" points="318.83 67.44 321.02 67.44 321.02 83.89 319.25 83.89 310.79 71.6 310.79 83.89 308.6 83.89 308.6 67.44 310.37 67.44 318.83 79.71 318.83 67.44"/><g class="l"><path class="g" d="M342.76,75.74v.99c0,2.14-.73,3.93-2.21,5.36-1.48,1.41-3.43,2.12-5.85,2.12s-4.58-.82-6.23-2.47c-1.62-1.67-2.45-3.69-2.45-6.07s.82-4.4,2.45-6.04c1.64-1.67,3.71-2.49,6.18-2.49,1.53,0,2.92,.37,4.18,1.1,1.27,.73,2.26,1.67,2.94,2.87l-1.88,1.1c-.94-1.79-2.99-2.96-5.27-2.96-1.88,0-3.43,.61-4.63,1.86-1.2,1.22-1.81,2.75-1.81,4.56s.61,3.34,1.81,4.56c1.22,1.22,2.8,1.83,4.73,1.83,3.29,0,5.41-1.79,5.85-4.35h-6.04v-1.97h8.23Z"/></g><path class="g" d="M350,78.16h5.9l-2.96-8.11-2.94,8.11Zm7.99,5.74l-1.34-3.69h-7.41l-1.34,3.69h-2.33l6.14-16.46h2.47l6.14,16.46h-2.33Z"/><g class="o"><path class="g" d="M366.81,69.48v6.14h4.4c.82,0,1.51-.31,2.07-.89,.59-.61,.87-1.34,.87-2.19s-.28-1.58-.87-2.16c-.56-.59-1.25-.89-2.07-.89h-4.4Zm7.57,14.41l-3.69-6.3h-3.88v6.3h-2.19v-16.46h6.58c1.41,0,2.61,.49,3.62,1.5,1.01,.99,1.51,2.19,1.51,3.6,0,1.06-.33,2.05-.96,2.92-.63,.87-1.43,1.5-2.44,1.86l3.88,6.58h-2.42Z"/></g><path class="g" d="M384.19,78.16h5.9l-2.96-8.11-2.94,8.11Zm7.99,5.74l-1.34-3.69h-7.41l-1.34,3.69h-2.33l6.14-16.46h2.47l6.14,16.46h-2.33Z"/><g class="n"><path class="g" d="M398.13,67.44h2.19v10.84c0,2.33,1.43,3.79,4,3.79s4-1.46,4-3.79v-10.84h2.16v10.93c0,1.76-.56,3.2-1.72,4.26-1.15,1.06-2.63,1.58-4.44,1.58s-3.31-.52-4.47-1.58c-1.15-1.06-1.72-2.49-1.72-4.26v-10.93Z"/><path class="g" d="M170.96,99.65c-1.2-1.25-2.7-1.86-4.51-1.86s-3.31,.61-4.54,1.86c-1.2,1.22-1.81,2.75-1.81,4.56s.61,3.31,1.81,4.56c1.22,1.22,2.73,1.83,4.54,1.83s3.31-.61,4.51-1.83c1.22-1.25,1.83-2.75,1.83-4.56s-.61-3.34-1.83-4.56m-10.56-1.48c1.65-1.67,3.67-2.49,6.04-2.49s4.4,.82,6.04,2.49c1.67,1.65,2.49,3.67,2.49,6.04s-.82,4.37-2.49,6.04c-1.65,1.67-3.67,2.49-6.04,2.49s-4.4-.82-6.04-2.49c-1.65-1.67-2.47-3.67-2.47-6.04s.82-4.4,2.47-6.04"/></g><path class="g" d="M191.01,106.7h5.9l-2.96-8.11-2.94,8.11Zm7.99,5.74l-1.34-3.69h-7.41l-1.34,3.69h-2.33l6.14-16.46h2.47l6.14,16.46h-2.33Z"/><path class="g" d="M217.2,99.65c-1.2-1.25-2.7-1.86-4.51-1.86s-3.31,.61-4.54,1.86c-1.2,1.22-1.81,2.75-1.81,4.56s.61,3.31,1.81,4.56c1.22,1.22,2.73,1.83,4.54,1.83s3.31-.61,4.51-1.83c1.22-1.25,1.83-2.75,1.83-4.56s-.61-3.34-1.83-4.56m-10.56-1.48c1.65-1.67,3.67-2.49,6.04-2.49s4.4,.82,6.04,2.49c1.67,1.65,2.49,3.67,2.49,6.04s-.82,4.37-2.49,6.04c-1.65,1.67-3.67,2.49-6.04,2.49s-4.4-.82-6.04-2.49c-1.65-1.67-2.47-3.67-2.47-6.04s.82-4.4,2.47-6.04"/><polygon class="g" points="235.8 95.98 235.8 98.05 230.93 98.05 230.93 112.44 228.77 112.44 228.77 98.05 223.93 98.05 223.93 95.98 235.8 95.98"/><polygon class="g" points="242.47 110.37 250.11 110.37 250.11 112.44 240.29 112.44 240.29 95.98 250 95.98 250 98.05 242.47 98.05 242.47 103.11 249.41 103.11 249.41 105.15 242.47 105.15 242.47 110.37"/><path class="g" d="M258.2,106.7h5.9l-2.96-8.11-2.94,8.11Zm7.99,5.74l-1.34-3.69h-7.41l-1.34,3.69h-2.33l6.14-16.46h2.47l6.14,16.46h-2.33Z"/><g><path class="g" d="M275.01,98.03v6.14h4.4c.82,0,1.51-.31,2.07-.89,.59-.61,.87-1.34,.87-2.19s-.28-1.58-.87-2.16c-.56-.59-1.25-.89-2.07-.89h-4.4Zm7.57,14.41l-3.69-6.3h-3.88v6.3h-2.19v-16.46h6.58c1.41,0,2.61,.49,3.62,1.5,1.01,.99,1.51,2.19,1.51,3.6,0,1.06-.33,2.05-.96,2.92-.63,.87-1.43,1.5-2.44,1.86l3.88,6.58h-2.42Z"/><path class="g" d="M301.6,99.65c-1.2-1.25-2.7-1.86-4.51-1.86s-3.31,.61-4.54,1.86c-1.2,1.22-1.81,2.75-1.81,4.56s.61,3.31,1.81,4.56c1.22,1.22,2.73,1.83,4.54,1.83s3.31-.61,4.51-1.83c1.22-1.25,1.83-2.75,1.83-4.56s-.61-3.34-1.83-4.56m-10.56-1.48c1.65-1.67,3.67-2.49,6.04-2.49s4.4,.82,6.04,2.49c1.67,1.65,2.49,3.67,2.49,6.04s-.82,4.37-2.49,6.04c-1.65,1.67-3.67,2.49-6.04,2.49s-4.4-.82-6.04-2.49c-1.65-1.67-2.47-3.67-2.47-6.04s.82-4.4,2.47-6.04"/></g><path class="g" d="M312.86,106.7h5.9l-2.96-8.11-2.94,8.11Zm7.99,5.74l-1.34-3.69h-7.41l-1.34,3.69h-2.33l6.14-16.46h2.47l6.14,16.46h-2.33Z"/><path class="g" d="M168.52,45.77c0-2.52-1.62-4.16-3.88-4.16h-2.37v8.32h2.37c2.26,0,3.88-1.65,3.88-4.16m4.11,0c0,4.65-3.46,8.23-7.99,8.23h-6.7v-16.46h6.7c4.54,0,7.99,3.57,7.99,8.23"/><polygon class="g" points="186.1 50.05 186.1 54 175.52 54 175.52 37.54 185.98 37.54 185.98 41.47 179.73 41.47 179.73 43.75 185.39 43.75 185.39 47.63 179.73 47.63 179.73 50.05 186.1 50.05"/><polygon class="g" points="187.74 37.54 192.35 37.54 195.55 48.87 198.77 37.54 203.38 37.54 198.07 54 193.06 54 187.74 37.54"/><path class="g" d="M220.11,48l-1.67-5.59-1.65,5.59h3.31Zm1.08,3.62h-5.48l-.71,2.37h-4.56l5.43-16.46h5.13l5.43,16.46h-4.54l-.71-2.37Z"/><path class="g" d="M227.36,45.77c0-4.84,3.6-8.58,8.58-8.58,3.01,0,5.69,1.53,7.12,3.9l-3.64,2.09c-.63-1.18-1.95-1.88-3.48-1.88-2.66,0-4.4,1.83-4.4,4.47s1.74,4.47,4.4,4.47c1.53,0,2.84-.71,3.48-1.9l3.64,2.12c-1.43,2.37-4.09,3.9-7.12,3.9-4.98,0-8.58-3.74-8.58-8.58"/><path class="g" d="M253.76,48l-1.67-5.59-1.64,5.59h3.31Zm1.08,3.62h-5.48l-.7,2.37h-4.56l5.43-16.46h5.13l5.43,16.46h-4.54l-.71-2.37Z"/><path class="g" d="M272.8,45.77c0-2.52-1.62-4.16-3.88-4.16h-2.37v8.32h2.37c2.26,0,3.88-1.65,3.88-4.16m4.11,0c0,4.65-3.46,8.23-7.99,8.23h-6.7v-16.46h6.7c4.54,0,7.99,3.57,7.99,8.23"/><polygon class="g" points="290.36 50.05 290.36 54 279.78 54 279.78 37.54 290.24 37.54 290.24 41.47 283.99 41.47 283.99 43.75 289.65 43.75 289.65 47.63 283.99 47.63 283.99 50.05 290.36 50.05"/><polygon class="g" points="310.08 54 305.9 54 305.9 45.14 301.9 51.74 301.48 51.74 297.51 45.16 297.51 54 293.3 54 293.3 37.54 297.51 37.54 301.69 44.57 305.9 37.54 310.08 37.54 310.08 54"/><polygon class="g" points="322.07 47.67 322.07 54 317.87 54 317.87 47.72 312.32 37.54 317.04 37.54 319.96 43.63 322.9 37.54 327.62 37.54 322.07 47.67"/></g></svg>